<svg width="1240" height="272" viewBox="0 0 1240 272" fill="none" xmlns="http://www.w3.org/2000/svg">
<g clip-path="url(#clip0_11223_90)">
<rect width="1240" height="272" fill="#7DCEFB"/>
<g opacity="0.2">
<rect x="9" y="77" width="6" height="60" rx="3" fill="black"/>
<rect x="25" y="92" width="6" height="30" rx="3" fill="black"/>
<rect x="41" y="85" width="6" height="44" rx="3" fill="black"/>
<rect x="57" y="88.5" width="6" height="37" rx="3" fill="black"/>
<rect x="73" y="77" width="6" height="60" rx="3" fill="black"/>
<rect x="89" y="81" width="6" height="52" rx="3" fill="black"/>
<rect x="105" y="70" width="6" height="74" rx="3" fill="black"/>
<rect x="121" y="92" width="6" height="30" rx="3" fill="black"/>
<rect x="137" y="70" width="6" height="74" rx="3" fill="black"/>
<rect x="153" y="92" width="6" height="30" rx="3" fill="black"/>
<rect x="169" y="70" width="6" height="74" rx="3" fill="black"/>
<rect x="185" y="85" width="6" height="44" rx="3" fill="black"/>
</g>
<g opacity="0.2">
<rect x="1049" y="85" width="6" height="44" rx="3" fill="black"/>
<rect x="1065" y="70" width="6" height="74" rx="3" fill="black"/>
<rect x="1081" y="92" width="6" height="30" rx="3" fill="black"/>
<rect x="1097" y="85" width="6" height="44" rx="3" fill="black"/>
<rect x="1113" y="70" width="6" height="74" rx="3" fill="black"/>
<rect x="1129" y="92" width="6" height="30" rx="3" fill="black"/>
<rect x="1145" y="85" width="6" height="44" rx="3" fill="black"/>
<rect x="1161" y="88.5" width="6" height="37" rx="3" fill="black"/>
<rect x="1177" y="81" width="6" height="52" rx="3" fill="black"/>
<rect x="1193" y="70" width="6" height="74" rx="3" fill="black"/>
<rect x="1209" y="70" width="6" height="74" rx="3" fill="black"/>
<rect x="1225" y="85" width="6" height="44" rx="3" fill="black"/>
</g>
<g opacity="0.2" clip-path="url(#clip1_11223_90)">
<path d="M267.026 282.213L264.478 234.858C264.483 234.743 264.477 234.628 264.459 234.515C264.462 234.423 264.457 234.331 264.444 234.24L264.258 233.974L264.037 233.71L263.796 233.723L263.476 233.533C261.545 232.967 259.588 232.497 257.61 232.126L257.177 224.084C257.126 223.135 256.316 222.407 255.367 222.458C243.202 223.237 232.117 229.71 225.46 239.921C217.815 230.471 206.134 225.215 193.99 225.761C193.041 225.812 192.313 226.623 192.365 227.572L192.784 235.373C190.845 235.961 188.938 236.65 187.071 237.438L186.738 237.663L186.498 237.676L186.306 237.962L186.149 238.246C186.147 238.338 186.152 238.43 186.164 238.521C186.098 238.643 186.047 238.773 186.013 238.908L188.572 286.469C188.568 286.573 188.573 286.676 188.589 286.779C188.621 286.86 188.66 286.939 188.705 287.014C188.766 287.133 188.841 287.245 188.929 287.346L188.94 287.552L189.226 287.744L189.511 287.901L189.751 287.888L190.164 287.866L190.439 287.851L190.748 287.834C202.656 283.104 216.073 284.07 227.18 290.458L227.499 290.613L228.014 290.585L228.53 290.557L228.839 290.541C239.206 283.13 252.362 280.789 264.65 284.168L264.959 284.151L265.234 284.136L265.646 284.114L265.887 284.101L266.185 283.878L266.416 283.693L266.403 283.453C266.678 283.3 266.905 283.073 267.057 282.797C267.06 282.705 267.055 282.614 267.043 282.522C267.047 282.419 267.041 282.316 267.026 282.213ZM191.849 283.95L189.493 240.168C190.55 239.744 191.677 239.339 192.874 238.952L194.745 273.73C194.794 274.679 195.604 275.408 196.553 275.359C196.588 275.357 196.624 275.354 196.659 275.35L196.695 275.383C205.583 274.902 214.3 277.965 220.934 283.901C211.486 280.787 201.286 280.804 191.849 283.95ZM226.109 284.002C218.945 276.18 208.828 271.724 198.221 271.716L195.93 229.138C206.973 229.291 217.318 234.567 223.925 243.416L226.109 284.002ZM229.587 283.952L227.396 243.229C233.076 233.764 242.782 227.425 253.732 226.027L253.766 226.025L256.065 268.741C245.504 269.898 235.907 275.412 229.587 283.952ZM263.569 280.09C253.859 277.997 243.733 279.073 234.68 283.161C240.664 276.539 249.02 272.547 257.932 272.053C258.881 272.002 259.609 271.191 259.558 270.242L257.687 235.465C258.848 235.701 260.023 235.982 261.213 236.309L263.569 280.09L263.569 280.09Z" fill="black"/>
</g>
<g opacity="0.2" clip-path="url(#clip2_11223_90)">
<path d="M964.669 282.213L967.217 234.858C967.211 234.743 967.217 234.628 967.235 234.515C967.233 234.423 967.238 234.331 967.25 234.24L967.437 233.974L967.658 233.71L967.898 233.723L968.219 233.533C970.15 232.967 972.107 232.497 974.085 232.126L974.517 224.084C974.568 223.135 975.379 222.407 976.328 222.458C988.493 223.237 999.577 229.71 1006.23 239.921C1013.88 230.471 1025.56 225.215 1037.7 225.761C1038.65 225.812 1039.38 226.623 1039.33 227.572L1038.91 235.373C1040.85 235.961 1042.76 236.65 1044.62 237.438L1044.96 237.663L1045.2 237.676L1045.39 237.962L1045.55 238.246C1045.55 238.338 1045.54 238.43 1045.53 238.521C1045.6 238.643 1045.65 238.773 1045.68 238.908L1043.12 286.469C1043.13 286.573 1043.12 286.676 1043.11 286.779C1043.07 286.86 1043.04 286.939 1042.99 287.014C1042.93 287.133 1042.85 287.245 1042.77 287.346L1042.75 287.552L1042.47 287.744L1042.18 287.901L1041.94 287.888L1041.53 287.866L1041.26 287.851L1040.95 287.834C1029.04 283.104 1015.62 284.07 1004.51 290.458L1004.2 290.613L1003.68 290.585L1003.16 290.557L1002.86 290.541C992.488 283.13 979.333 280.789 967.045 284.168L966.736 284.151L966.461 284.136L966.048 284.114L965.808 284.101L965.51 283.878L965.278 283.693L965.291 283.453C965.016 283.3 964.79 283.073 964.637 282.797C964.634 282.705 964.639 282.614 964.652 282.522C964.648 282.419 964.654 282.316 964.669 282.213ZM1039.85 283.95L1042.2 240.168C1041.15 239.744 1040.02 239.339 1038.82 238.952L1036.95 273.73C1036.9 274.679 1036.09 275.408 1035.14 275.359C1035.11 275.357 1035.07 275.354 1035.04 275.35L1035 275.383C1026.11 274.902 1017.39 277.965 1010.76 283.901C1020.21 280.787 1030.41 280.804 1039.85 283.95ZM1005.59 284.002C1012.75 276.18 1022.87 271.724 1033.47 271.716L1035.76 229.138C1024.72 229.291 1014.38 234.567 1007.77 243.416L1005.59 284.002ZM1002.11 283.952L1004.3 243.229C998.619 233.764 988.913 227.425 977.963 226.027L977.928 226.025L975.63 268.741C986.19 269.898 995.788 275.412 1002.11 283.952ZM968.126 280.09C977.836 277.997 987.961 279.073 997.015 283.161C991.031 276.539 982.674 272.547 973.763 272.053C972.814 272.002 972.086 271.191 972.137 270.242L974.008 235.465C972.847 235.701 971.671 235.982 970.482 236.309L968.126 280.09L968.126 280.09Z" fill="black"/>
</g>
</g>
<defs>
<clipPath id="clip0_11223_90">
<rect width="1240" height="272" fill="white"/>
</clipPath>
<clipPath id="clip1_11223_90">
<rect width="78.5855" height="78.5855" fill="white" transform="translate(185 220.223) rotate(-3.08019)"/>
</clipPath>
<clipPath id="clip2_11223_90">
<rect width="78.5855" height="78.5855" fill="white" transform="matrix(-0.998555 -0.0537336 -0.0537336 0.998555 1046.69 220.223)"/>
</clipPath>
</defs>
</svg>
