<svg width="63" height="61" viewBox="0 0 63 61" fill="none" xmlns="http://www.w3.org/2000/svg">
<path d="M37.2168 9.80401C37.2665 9.9619 37.3246 10.075 37.3913 10.1432C37.9877 10.7607 38.4438 11.4652 38.7594 12.2569C39.0074 12.877 39.1862 13.416 39.2959 13.874C39.4583 14.555 39.5257 15.3435 39.498 16.2395C39.4478 17.837 39.0117 19.3146 38.1899 20.6723C37.8378 21.2538 37.3813 21.7354 36.9447 22.2721C36.7475 22.514 36.5028 22.8678 36.2107 23.3337C35.8856 23.8515 35.6935 24.1379 35.5759 24.6439C35.3601 25.5725 35.2456 26.0601 35.2323 26.1068C35.0416 26.7686 34.9049 26.9221 34.2892 27.0716C34.2524 27.0803 34.2187 27.0991 34.1916 27.1259C34.167 27.15 34.1539 27.1631 34.1524 27.1652C34.1319 27.1883 34.1122 27.192 34.0932 27.1762C34.0794 27.1652 34.0719 27.1437 34.0709 27.1117L34.4283 20.78C34.4309 20.7345 34.464 20.6967 34.5083 20.6888C35.6635 20.4912 36.9109 19.9254 37.193 18.6357C37.3437 17.9474 37.2073 17.406 36.7841 17.0115C36.2061 16.4724 35.2761 16.3575 34.6144 16.8344C33.815 17.4096 33.5737 18.7458 33.5314 19.6838C33.5292 19.73 33.4954 19.768 33.4507 19.7743C33.3344 19.7906 33.1361 19.8024 32.8558 19.8097C32.2296 19.8265 31.6015 19.8255 30.9712 19.8066C30.9229 19.8049 30.8831 19.7669 30.8782 19.7177C30.8582 19.4952 30.8388 19.2662 30.8198 19.0307C30.7368 18.0289 30.3071 16.784 29.2618 16.5692C28.2534 16.363 27.3019 17.0358 27.1712 18.1234C27.0682 18.9819 27.5917 19.7932 28.3241 20.2087C28.7402 20.4448 29.2618 20.6108 29.889 20.7069C29.9108 20.7102 29.9282 20.7268 29.9328 20.7486C29.9599 20.876 29.9751 20.9721 29.9781 21.0366C30.0819 23.2133 30.2379 25.3883 30.3486 27.565L30.3356 27.6421C30.333 27.6593 30.3173 27.6711 30.3005 27.6684C30.2887 27.6666 30.2789 27.6578 30.2756 27.646C30.2525 27.571 30.1946 27.5282 30.1019 27.5177C29.3279 27.4335 28.5324 27.2809 27.833 26.8182C27.8122 26.8045 27.7874 26.7989 27.763 26.8024L27.6446 26.8205C27.2614 25.7293 26.7059 24.7385 25.9783 23.8482C25.6775 23.4805 25.4118 23.1495 25.1813 22.8551C23.3266 20.4881 22.7832 17.3892 23.7194 14.4972C24.86 10.9717 28.1266 8.43153 31.7551 8.22849C33.6513 8.12159 35.6504 8.66771 37.2168 9.80401ZM29.1319 11.6871C29.1513 11.6919 29.1682 11.6919 29.1826 11.6871C29.426 11.6064 29.686 11.4925 29.9627 11.3456C30.1416 11.2507 30.6233 11.0875 31.4077 10.8561C31.7121 10.7672 32.1694 10.5831 32.1733 10.2274C32.1817 9.51284 31.6022 9.28307 31.0019 9.38381C30.1231 9.53121 29.3494 9.82107 28.6807 10.2534C28.6201 10.2924 28.5539 10.3212 28.4847 10.3383C27.4241 10.6004 26.4748 11.6179 25.9483 12.5473C25.6831 13.0147 25.3549 13.6789 25.6816 14.1447C25.8163 14.3373 26.0333 14.4191 26.3326 14.3903C26.3619 14.3872 26.39 14.3775 26.4148 14.3619C26.5434 14.2822 26.6313 14.2072 26.6784 14.1369C27.3189 13.1821 28.1321 12.3665 29.118 11.6903C29.1219 11.6873 29.1269 11.6862 29.1319 11.6871ZM25.6715 15.1343C25.3857 14.9529 24.9903 15.0763 24.7884 15.4098C24.5864 15.7433 24.6543 16.1608 24.94 16.3422C25.2257 16.5235 25.6211 16.4002 25.8231 16.0667C26.0251 15.7331 25.9572 15.3157 25.6715 15.1343Z" fill="#FFDC16"/>
<path d="M29.118 11.6904C28.1321 12.3666 27.319 13.1821 26.6785 14.1369C26.6313 14.2072 26.5434 14.2822 26.4149 14.362C26.39 14.3775 26.362 14.3872 26.3326 14.3903C26.0334 14.4191 25.8164 14.3373 25.6816 14.1448C25.3549 13.6789 25.6832 13.0147 25.9483 12.5473C26.4748 11.6179 27.424 10.6004 28.4847 10.3384C28.554 10.3212 28.6202 10.2924 28.6807 10.2534C29.3494 9.8211 30.1231 9.53124 31.0019 9.38384C31.6022 9.28309 32.1817 9.51291 32.1733 10.2274C32.1695 10.5831 31.7121 10.7673 31.4078 10.8562C30.6233 11.0875 30.1416 11.2507 29.9628 11.3456C29.6861 11.4925 29.426 11.6064 29.1826 11.6872C29.1683 11.6919 29.1514 11.6919 29.1319 11.6872C29.1269 11.6862 29.1219 11.6874 29.118 11.6904Z" fill="#FFFECB"/>
<path d="M34.071 27.1119C34.072 27.1439 34.0794 27.1654 34.0932 27.1764C34.1122 27.1922 34.1319 27.1885 34.1524 27.1654C34.154 27.1633 34.167 27.1502 34.1916 27.1261C34.2188 27.0993 34.2525 27.0805 34.2892 27.0718C34.9049 26.9222 35.0417 26.7688 35.2323 26.107C35.2456 26.0603 35.3602 25.5727 35.5759 24.6441C35.6935 24.1381 35.8856 23.8517 36.2108 23.3339C36.5028 22.868 36.7475 22.5142 36.9448 22.2723C37.3814 21.7356 37.8379 21.254 38.1899 20.6725C39.0118 19.3148 39.4478 17.8372 39.4981 16.2397C39.5257 15.3437 39.4583 14.5552 39.2959 13.8742C39.1863 13.4162 39.0074 12.8772 38.7594 12.2571C38.4438 11.4654 37.9877 10.7608 37.3913 10.1434C37.3247 10.0752 37.2665 9.96213 37.2168 9.8042C38.9055 10.9429 40.2744 12.8835 40.8331 14.8657C41.3 16.5225 41.2761 18.2094 40.7617 19.9265C40.5116 20.7617 40.0917 21.6189 39.5019 22.4981C39.362 22.7064 39.0805 23.0582 38.6573 23.5534C37.7711 24.5914 37.0132 25.7906 36.6258 27.0852C36.5321 27.3999 36.4859 27.7588 36.3991 28.0665C36.2945 28.4379 35.8365 28.6228 35.4545 28.7149C35.0486 28.8124 34.5616 28.8924 33.9933 28.9549C33.9845 28.9562 33.9763 28.95 33.975 28.9409C33.9749 28.9398 33.9748 28.9387 33.9749 28.9376L34.071 27.1119Z" fill="#F5B20B"/>
<path d="M24.7884 15.4099C24.9904 15.0764 25.3857 14.953 25.6715 15.1344C25.9572 15.3159 26.0251 15.7333 25.8231 16.0668C25.6211 16.4003 25.2257 16.5237 24.94 16.3423C24.6543 16.1609 24.5864 15.7435 24.7884 15.4099Z" fill="#FFFECB"/>
<path d="M34.5566 19.6032C34.6064 19.2627 34.643 19.0133 34.6666 18.8548C34.7457 18.3229 35.1331 17.4415 35.7872 17.6595C36.1123 17.7681 36.2153 18.1112 36.12 18.4409C35.9163 19.1483 35.2968 19.4922 34.6074 19.6512C34.5846 19.6562 34.5621 19.6413 34.5572 19.6179C34.5562 19.6131 34.556 19.6081 34.5566 19.6032Z" fill="#FFDC16"/>
<path d="M29.8106 19.6509C29.3786 19.568 29.021 19.4154 28.7376 19.1929C28.3149 18.8601 27.9613 18.0905 28.577 17.7159C29.1419 17.3728 29.5523 18.048 29.6699 18.4973C29.7667 18.8672 29.8229 19.2436 29.8383 19.6265C29.8385 19.64 29.8283 19.6511 29.8155 19.6514C29.8138 19.6514 29.8122 19.6513 29.8106 19.6509Z" fill="#FFDC16"/>
<path d="M32.9418 28.6385C32.8768 28.275 32.8576 27.913 32.8842 27.5526C32.8868 27.521 32.8639 27.4932 32.833 27.4905C32.8303 27.4903 32.8277 27.4902 32.825 27.4904L31.5499 27.5691C31.5319 27.5704 31.5183 27.5861 31.5192 27.6045L31.5822 28.6598C31.5831 28.6793 31.5939 28.6969 31.6106 28.7062C32.0436 28.9475 32.4832 28.9643 32.9296 28.7566L32.9188 28.9808C32.918 29.0045 32.8989 29.0233 32.8758 29.0233H31.5007C31.4826 29.0233 31.4677 29.0088 31.4669 28.9902L30.9858 20.8723C30.9849 20.858 30.9956 20.8457 31.0096 20.8448C31.0101 20.8447 31.0106 20.8447 31.0112 20.8447H33.3808C33.3948 20.8447 33.4062 20.8563 33.4062 20.8706C33.4062 20.8712 33.4062 20.8717 33.4061 20.8723L32.9418 28.6385Z" fill="#FFDC16"/>
<path d="M30.3486 27.5654L30.4224 28.9102C30.4229 28.9224 30.4134 28.9326 30.4011 28.9331C30.4 28.9332 30.3989 28.9331 30.3978 28.933C29.5723 28.8299 28.733 28.7646 28.1235 28.3444C28.0318 28.2809 27.9701 28.1678 27.9383 28.0052C27.8604 27.6039 27.7625 27.2091 27.6447 26.8209L27.763 26.8028C27.7874 26.7992 27.8122 26.8048 27.833 26.8186C28.5324 27.2813 29.3279 27.434 30.1019 27.5181C30.1947 27.5286 30.2525 27.5714 30.2756 27.6464C30.2803 27.6631 30.2973 27.6727 30.3136 27.668C30.3252 27.6646 30.3337 27.6546 30.3355 27.6425L30.3486 27.5654Z" fill="#F5B20B"/>
<path d="M32.9419 28.6384L32.9296 28.7565C32.4833 28.9642 32.0437 28.9474 31.6107 28.7061C31.5939 28.6968 31.5831 28.6792 31.5822 28.6597L31.5192 27.6044C31.5183 27.586 31.532 27.5703 31.5499 27.569L32.8251 27.4903C32.856 27.4885 32.8825 27.5127 32.8843 27.5443C32.8845 27.5471 32.8845 27.5498 32.8843 27.5525C32.8576 27.9129 32.8768 28.2748 32.9419 28.6384Z" fill="#F5B20B"/>
<path d="M31.4522 38.4965C31.4692 38.5001 31.4802 38.5172 31.4767 38.5346C31.476 38.5381 31.4748 38.5414 31.473 38.5445C30.6516 39.931 29.405 42.0584 27.733 44.9265C26.7189 46.6651 25.729 48.439 24.7631 50.2485C24.389 50.9494 24.0593 51.6542 23.7739 52.363C23.7694 52.3737 23.7572 52.3787 23.7467 52.3741C23.7415 52.3718 23.7375 52.3675 23.7355 52.3622C23.0031 50.1399 21.8156 48.3197 20.13 46.6727C18.3176 44.9026 16.1932 43.5386 13.7567 42.5806C10.8781 41.448 7.91072 40.8573 4.85476 40.8085C4.84464 40.8079 4.83664 40.7993 4.83692 40.7893C4.83704 40.7854 4.83843 40.7816 4.84092 40.7786L14.5169 28.8652C14.5583 28.8139 14.62 28.7841 14.6852 28.7842C18.9564 28.7905 23.5188 29.6404 26.7961 32.6386C26.8355 32.6748 26.8659 32.7198 26.8845 32.77C26.9173 32.8602 26.9481 32.9609 26.9768 33.0722C27.0844 33.4861 27.3972 33.8512 27.7446 34.0842C27.7763 34.1052 27.7976 34.1393 27.803 34.1778C27.9521 35.296 28.6538 36.0617 29.6461 36.4993C29.6868 36.5172 29.717 36.5536 29.7276 36.5976C29.8905 37.2964 30.2754 37.8383 30.8821 38.2234C31.0848 38.3525 31.2462 38.4524 31.4522 38.4965ZM23.797 52.0529C24.2389 51.0213 24.5779 50.4138 25.2596 49.1546C26.0964 47.6097 26.9254 46.1329 27.7468 44.7242C28.9848 42.6022 30.1743 40.5779 31.3154 38.6515C31.3372 38.6152 31.3258 38.5676 31.29 38.5451C31.2873 38.5434 31.2845 38.5419 31.2816 38.5405C30.5338 38.199 29.8981 37.5836 29.686 36.7692C29.6558 36.6527 29.6268 36.585 29.5991 36.5661C29.5192 36.5115 29.4426 36.4748 29.3693 36.4559C29.3277 36.4455 29.2841 36.4628 29.2602 36.4992C28.4685 37.7069 27.2395 39.53 25.5732 41.9684C24.5233 43.5045 23.2354 45.418 21.7094 47.7091C21.5972 47.8767 21.4904 48.0223 21.6072 48.1733C22.5257 49.364 23.1951 50.6522 23.7324 52.0521C23.7392 52.0704 23.7594 52.0793 23.7774 52.0719C23.7861 52.0684 23.7931 52.0616 23.797 52.0529Z" fill="#FFFDEF"/>
<path d="M25.6116 51.0134C26.8609 48.8006 28.0056 46.8133 29.0458 45.0516C31.5125 40.8746 32.7507 38.7777 32.7604 38.7609C32.8009 38.6907 32.8619 38.635 32.9349 38.6012C33.7381 38.2289 34.4752 37.7623 34.7119 36.8267C34.7462 36.6898 34.7695 36.6048 34.7819 36.5717C34.7932 36.5404 34.8157 36.5148 34.8449 36.5001C35.615 36.1184 36.4151 35.3732 36.5727 34.4848C36.6086 34.2807 36.6265 34.1784 36.6265 34.1779C36.6325 34.1506 36.6481 34.1264 36.6703 34.1102C37.0861 33.8111 37.3782 33.4374 37.5019 32.9196C37.5296 32.8 37.6695 32.7189 37.7771 32.6442C40.8792 30.5048 44.3187 29.3314 48.0956 29.1242C50.1309 29.0133 52.0854 29.1439 54.0461 29.3666C54.0639 29.3685 54.0766 29.3851 54.0746 29.4036C54.0743 29.4069 54.0735 29.41 54.0722 29.413L47.7874 44.7951C47.7803 44.8134 47.7612 44.8238 47.742 44.8196C46.317 44.4932 44.8969 44.2768 43.4816 44.1703C41.3764 44.0121 39.2943 44.1624 37.1767 44.648C34.5507 45.2502 32.0868 46.2489 29.7851 47.6438C28.2394 48.581 26.8313 49.7126 25.63 51.0276C25.6261 51.0328 25.6189 51.0338 25.6138 51.0298C25.6089 51.0259 25.6079 51.0186 25.6116 51.0134ZM30.3039 43.2692C30.4141 43.2257 30.5343 43.1659 30.6644 43.0898C31.2291 42.7572 32.0482 42.2968 33.1216 41.7087C34.7703 40.8053 36.2537 39.9295 37.6249 38.8254C37.8237 38.6654 37.9769 38.4892 38.0845 38.2966C38.3382 37.8434 37.8294 37.7458 37.525 37.7591C36.9962 37.7827 36.4858 37.878 35.9939 38.0448C34.7688 38.4603 33.6235 39.0182 32.4391 39.6068C32.3694 39.6418 32.3109 39.6964 32.2708 39.7642L30.2417 43.1929C30.2272 43.2179 30.2352 43.2503 30.2597 43.2651C30.2731 43.2733 30.2894 43.2748 30.3039 43.2692Z" fill="#FFFDEF"/>
<path d="M35.104 29.8896L35.0648 30.6435C35.0643 30.6508 35.0632 30.6579 35.0617 30.6648C35.0304 30.8075 35.0166 30.958 35.0202 31.1165C33.5096 31.4543 31.9824 31.5118 30.4386 31.2888C29.6612 31.176 29.0909 31.0761 28.7277 30.989C28.535 30.9428 28.3206 30.8544 28.0843 30.7238C27.5671 30.4389 27.5325 29.8857 27.6593 29.3608C27.663 29.3448 27.6788 29.3349 27.6945 29.3387C27.6972 29.3394 27.6999 29.3405 27.7023 29.3419C28.0615 29.5539 28.4569 29.6997 28.8883 29.7795C29.5067 29.8938 30.1872 29.9775 30.9297 30.0305C32.3408 30.132 33.7028 30.1312 35.104 29.8896Z" fill="#1986E3"/>
<path d="M35.0201 31.1162C35.0165 30.9578 35.0303 30.8072 35.0616 30.6645C35.0631 30.6577 35.0642 30.6506 35.0647 30.6433L35.1038 29.8894C35.6934 29.7713 36.1553 29.6541 36.6026 29.3535C36.6228 29.3398 36.6501 29.3459 36.6635 29.367C36.6663 29.3713 36.6683 29.3761 36.6695 29.381C36.752 29.7483 36.7433 30.0906 36.6434 30.408C36.5258 30.7802 36.0569 30.8542 35.7372 30.9454C35.5046 31.0116 35.2655 31.0685 35.0201 31.1162Z" fill="#1E489E"/>
<path d="M34.9617 33.4271C34.9417 33.2828 34.9258 32.989 34.914 32.5457C34.91 32.3825 34.9323 32.2404 34.9809 32.1192L36.2752 31.8233C36.3249 31.8118 36.3751 31.8411 36.3913 31.8909C36.5365 32.3379 36.5265 32.8455 36.0908 33.106C35.8033 33.277 35.427 33.3841 34.9617 33.4271Z" fill="#1E489E"/>
<path d="M34.9809 32.119C34.9322 32.2402 34.9099 32.3823 34.9141 32.5455C34.9259 32.9888 34.9417 33.2826 34.9617 33.4269C32.7735 33.7708 30.5984 33.7267 28.5316 33.1546C28.0976 33.0345 27.9011 32.7339 27.9421 32.2528C27.9582 32.0663 27.972 31.8814 28.1849 31.8751C28.3064 31.8714 28.3866 31.8743 28.4255 31.8837C29.9443 32.2457 31.3377 32.4128 32.6059 32.385C33.2239 32.3719 34.0155 32.2832 34.9809 32.119Z" fill="#1986E3"/>
<path d="M26.4771 51.6167C27.1027 50.9641 27.9497 50.2488 29.0181 49.4708C30.1054 48.6791 31.1572 48.0383 32.1732 47.5483C34.7404 46.3097 37.4082 45.5474 40.1767 45.2615C42.6739 45.0034 45.2018 45.352 47.7329 45.954C48.1792 46.0605 48.4889 45.9042 48.6621 45.485C49.2458 44.0722 50.9979 39.7777 53.9186 32.6014C53.9308 32.571 53.9613 32.5522 53.9939 32.555L56.8569 32.817C56.8743 32.8188 56.8869 32.8346 56.8852 32.8523C56.8849 32.8553 56.8842 32.8583 56.8831 32.8611C56.384 34.1117 55.8749 35.3449 55.3558 36.5604C53.6475 40.557 51.7772 44.8827 49.745 49.5377C49.7324 49.5669 49.7003 49.5818 49.6705 49.5723C47.1456 48.7358 44.5992 48.1298 42.0421 47.8678C37.5803 47.4098 33.0663 48.0338 29.0281 50.0098C28.0796 50.4749 27.2834 50.9919 26.5024 51.6427C26.4951 51.6492 26.4839 51.6484 26.4775 51.6408C26.4773 51.6407 26.4772 51.6405 26.4771 51.6403C26.471 51.6337 26.471 51.6234 26.4771 51.6167ZM28.9059 49.7139C28.8972 49.7209 28.8957 49.7338 28.9025 49.7427C28.9086 49.7507 28.9195 49.7528 28.9282 49.7478C32.0205 48.0658 35.3165 46.9961 38.8163 46.5387C39.6638 46.428 40.4508 46.3731 41.1774 46.3742C42.152 46.3758 43.1561 46.4466 44.1896 46.5867C45.4168 46.7524 46.3734 46.9117 47.0596 47.0643C47.6406 47.1939 48.1725 47.323 48.6552 47.4515C48.8407 47.5008 48.9701 47.4402 49.0434 47.2697C49.4031 46.4332 49.7359 45.5188 50.0441 44.7768C51.649 40.9171 53.3329 36.9382 55.0962 32.8398C55.1119 32.8033 55.0955 32.7604 55.0593 32.7442C55.0522 32.741 55.0447 32.739 55.037 32.7383L54.0455 32.647C54.0152 32.6443 53.9868 32.6619 53.9755 32.6903C52.2313 36.9958 50.536 41.1566 48.8896 45.1726C48.7369 45.5456 48.6042 45.7817 48.4915 45.8808C48.2942 46.0529 48.0401 46.1043 47.729 46.035C46.5157 45.7638 45.4073 45.5632 44.404 45.433C42.7905 45.2237 41.1974 45.2185 39.6249 45.4173C36.634 45.7961 33.8165 46.721 31.1725 48.192C31.0367 48.2676 30.6434 48.5207 29.9927 48.9514C29.7001 49.145 29.5323 49.2554 29.4893 49.2827C29.2756 49.416 29.0811 49.5597 28.9059 49.7139Z" fill="#FFFDEF"/>
<path d="M28.9058 49.7141C29.0811 49.5599 29.2755 49.4161 29.4892 49.2829C29.5322 49.2556 29.7001 49.1452 29.9927 48.9516C30.6434 48.5209 31.0367 48.2678 31.1725 48.1922C33.8165 46.7212 36.6339 45.7963 39.6248 45.4175C41.1974 45.2187 42.7905 45.224 44.404 45.4332C45.4073 45.5634 46.5156 45.764 47.729 46.0352C48.04 46.1045 48.2942 46.0531 48.4915 45.881C48.6042 45.7819 48.7369 45.5458 48.8896 45.1728C50.5359 41.1568 52.2312 36.9961 53.9755 32.6905C53.9868 32.662 54.0152 32.6445 54.0454 32.6473L55.0369 32.7385C55.0762 32.7422 55.1053 32.7776 55.1018 32.8174C55.1011 32.8252 55.0992 32.8329 55.0961 32.8401C53.333 36.9384 51.6489 40.9174 50.0441 44.777C49.7358 45.519 49.403 46.4335 49.0433 47.27C48.9701 47.4405 48.8407 47.501 48.6552 47.4517C48.1725 47.3232 47.6406 47.1942 47.0595 47.0646C46.3734 46.9119 45.4168 46.7527 44.1896 46.5869C43.156 46.4468 42.152 46.376 41.1774 46.3744C40.4508 46.3734 39.6638 46.4282 38.8162 46.5389C35.3165 46.9963 32.0205 48.066 28.9281 49.748C28.9186 49.7536 28.9063 49.7502 28.9008 49.7404C28.8959 49.7316 28.898 49.7204 28.9058 49.7141Z" fill="#C8CEDE"/>
<path d="M33.5982 34.5639C33.1709 35.1205 32.6839 35.4883 32.1371 35.6672C32.0198 35.706 31.7726 35.7708 31.3954 35.8616C31.0414 35.8437 30.6289 35.7369 30.158 35.5413C29.5918 35.3063 29.1844 34.8936 28.9359 34.3034C28.9274 34.283 28.9367 34.2595 28.9566 34.2508C28.9639 34.2476 28.9719 34.2467 28.9797 34.2484C30.501 34.5631 32.0405 34.6683 33.5982 34.5639Z" fill="#1986E3"/>
<path d="M31.3954 35.8618C31.7725 35.771 32.0198 35.7062 32.1371 35.6674C32.6838 35.4885 33.1709 35.1207 33.5982 34.5641C34.2095 34.5158 34.8131 34.4267 35.409 34.2965C35.433 34.291 35.4569 34.3067 35.4625 34.3317C35.4626 34.3323 35.4627 34.3329 35.4628 34.3335C35.4695 34.3676 35.4674 34.397 35.4567 34.4216C35.2906 34.8167 35.0045 35.1354 34.5981 35.3778C34.119 35.6631 33.6179 35.8365 33.0947 35.8979C32.5224 35.9651 31.956 35.953 31.3954 35.8618Z" fill="#1E489E"/>
<path d="M26.5378 52.8379L26.537 52.8371C26.5284 52.8257 26.53 52.8094 26.5409 52.8001C27.1383 52.2881 27.7537 51.8548 28.3871 51.5001C29.2394 51.0224 30.0549 50.5951 30.9181 50.2623C33.0732 49.4307 35.3019 48.9507 37.6042 48.8222C41.6655 48.5948 45.6976 49.3109 49.6036 50.7076C49.8634 50.8005 50.084 50.7816 50.2654 50.651C50.3761 50.5712 50.499 50.3756 50.6343 50.0639C53.9281 42.4716 56.0929 37.4924 57.129 35.1264C57.1429 35.0954 57.1762 35.0788 57.2082 35.0871L58.3181 35.3704C58.3406 35.3765 58.3542 35.3998 58.3484 35.4225C58.348 35.4238 58.3477 35.425 58.3472 35.4262C58.0424 36.2557 57.7247 37.0589 57.3942 37.8358C55.5188 42.245 53.6803 46.3307 51.5766 51.0114C51.2046 51.8377 50.8495 52.6639 50.4321 53.4635C50.4185 53.4888 50.3885 53.4994 50.363 53.4879C49.931 53.2932 49.4929 53.1086 49.0486 52.9339C45.1019 51.3852 41.0067 50.3032 36.8332 50.1261C36.1307 50.0967 35.2806 50.1368 34.283 50.2465C32.5037 50.4424 30.6698 50.8092 29.1087 51.4348C28.2505 51.7789 27.4065 52.2487 26.5769 52.8441C26.5642 52.8535 26.5466 52.8507 26.5378 52.8379ZM30.4515 50.7022L30.5077 50.7817C30.5207 50.7999 30.5445 50.8062 30.5645 50.7966C30.6235 50.7688 30.7726 50.73 31.0119 50.6801C32.1407 50.4462 33.1417 50.2785 34.0148 50.1773C34.3415 50.1395 34.5513 50.145 34.8349 50.097C34.9492 50.0776 35.1549 50.0595 35.4521 50.0427C36.935 49.9588 38.4364 49.9598 39.9561 50.0459C40.8723 50.0983 41.7783 50.2027 42.6739 50.3591C44.352 50.6518 46.0066 51.0673 47.6376 51.6056C48.6613 51.944 49.619 52.3539 50.5106 52.8356C50.57 52.8675 50.6434 52.844 50.6745 52.7832C50.675 52.7823 50.6754 52.7814 50.6758 52.7805C51.2262 51.6316 51.7849 50.3041 52.3491 49.0599C53.9841 45.4526 55.6674 41.6345 57.3988 37.6054C57.6898 36.9275 57.9665 36.228 58.2289 35.5066C58.2407 35.4726 58.2236 35.4354 58.1909 35.4234C58.1889 35.4227 58.187 35.4222 58.1851 35.4216L57.2689 35.1879C57.2289 35.1773 57.1873 35.198 57.1705 35.2367C55.6559 38.7191 53.5092 43.662 50.7304 50.0655C50.5833 50.4039 50.4696 50.6049 50.3891 50.6683C50.2103 50.8089 49.9889 50.8664 49.725 50.8407C49.7031 50.8386 49.6816 50.8336 49.6612 50.8257C48.1271 50.2654 46.5425 49.8174 44.9074 49.4817C44.1193 49.3201 43.2275 49.1766 42.2319 49.0512C41.0334 48.9001 39.7864 48.8388 38.4911 48.8671C38.2282 48.8734 37.9877 48.9009 37.6226 48.9167C35.7298 48.9969 33.7875 49.3684 31.7958 50.031C31.4599 50.1427 31.1371 50.341 30.8427 50.4119C30.7684 50.4297 30.6908 50.4601 30.6098 50.5031C30.4976 50.5629 30.4223 50.5994 30.3839 50.6125C30.3693 50.6174 30.3614 50.6334 30.3661 50.6482C30.3695 50.6588 30.3785 50.6663 30.3893 50.6676C30.4036 50.6697 30.4111 50.671 30.4115 50.6716C30.4276 50.6776 30.4415 50.6883 30.4515 50.7022Z" fill="#FFFDEF"/>
<path d="M30.4117 50.6715C30.4111 50.6709 30.4037 50.6696 30.3894 50.6675C30.3742 50.6657 30.3633 50.6517 30.365 50.6361C30.3663 50.6251 30.3737 50.6159 30.384 50.6125C30.4224 50.5993 30.4978 50.5629 30.61 50.5031C30.6909 50.46 30.7685 50.4296 30.8428 50.4118C31.1372 50.341 31.46 50.1427 31.7959 50.0309C33.7876 49.3683 35.7299 48.9969 37.6227 48.9166C37.9878 48.9009 38.2284 48.8733 38.4912 48.867C39.7866 48.8387 41.0335 48.9001 42.232 49.0511C43.2276 49.1765 44.1194 49.32 44.9075 49.4816C46.5426 49.8173 48.1272 50.2654 49.6613 50.8257C49.6818 50.8335 49.7032 50.8385 49.7251 50.8406C49.989 50.8663 50.2104 50.8089 50.3892 50.6683C50.4697 50.6048 50.5835 50.4039 50.7305 50.0655C53.5092 43.662 55.656 38.719 57.1706 35.2366C57.1874 35.1979 57.229 35.1772 57.269 35.1878L58.1852 35.4215C58.2189 35.4302 58.2393 35.4655 58.2308 35.5005C58.2303 35.5026 58.2297 35.5045 58.229 35.5065C57.9667 36.2279 57.69 36.9275 57.3989 37.6053C55.6675 41.6343 53.9843 45.4525 52.3492 49.0598C51.785 50.304 51.2262 51.6315 50.676 52.7804C50.6462 52.842 50.5735 52.8672 50.5133 52.8369C50.5124 52.8364 50.5116 52.836 50.5107 52.8355C49.6191 52.3539 48.6615 51.9439 47.6377 51.6056C46.0067 51.0673 44.3521 50.6518 42.674 50.359C41.7784 50.2027 40.8724 50.0983 39.9563 50.0458C38.4365 49.9598 36.9351 49.9588 35.4522 50.0427C35.155 50.0595 34.9493 50.0776 34.835 50.097C34.5514 50.145 34.3416 50.1395 34.0149 50.1772C33.1418 50.2785 32.1408 50.4461 31.012 50.6801C30.7727 50.7299 30.6236 50.7688 30.5647 50.7965C30.5447 50.8062 30.5208 50.7999 30.5078 50.7816L30.4517 50.7021C30.4415 50.6883 30.4277 50.6776 30.4117 50.6715Z" fill="#C8CEDE"/>
<path d="M23.797 52.0526C23.7889 52.0708 23.7682 52.0791 23.7506 52.0713C23.7422 52.0676 23.7357 52.0606 23.7324 52.0518C23.1951 50.6519 22.5257 49.3637 21.6072 48.173C21.4904 48.022 21.5972 47.8764 21.7094 47.7088C23.2353 45.4178 24.5233 43.5042 25.5732 41.9681C27.2395 39.5297 28.4685 37.7066 29.2602 36.4989C29.2841 36.4625 29.3277 36.4452 29.3693 36.4556C29.4426 36.4745 29.5192 36.5112 29.5991 36.5658C29.6268 36.5847 29.6558 36.6524 29.686 36.7689C29.8982 37.5833 30.5338 38.1987 31.2817 38.5402C31.3199 38.558 31.337 38.6039 31.3199 38.6427C31.3186 38.6456 31.3171 38.6484 31.3155 38.6512C30.1743 40.5776 28.9848 42.6018 27.7468 44.7239C26.9255 46.1325 26.0964 47.6093 25.2596 49.1543C24.5778 50.4134 24.2389 51.0209 23.797 52.0526Z" fill="#C8CEDE"/>
<path d="M32.2294 36.9955C32.6778 37.0003 33.0526 36.9788 33.3539 36.931C33.3817 36.9274 33.407 36.9476 33.4105 36.9761C33.4124 36.9919 33.4071 37.0078 33.3961 37.0191C33.0431 37.3622 32.6523 37.5314 32.224 37.5267C31.7951 37.522 31.4077 37.3447 31.0618 36.9948C31.0424 36.9741 31.0429 36.9412 31.0631 36.9213C31.0746 36.91 31.0907 36.9048 31.1064 36.9074C31.4062 36.9614 31.7805 36.9908 32.2294 36.9955Z" fill="#1986E3"/>
<path d="M51.1216 57.1362C51.118 57.1445 51.1084 57.1482 51.1003 57.1445C51.0951 57.1422 51.0915 57.1372 51.0909 57.1315C50.9971 56.4364 50.9435 55.7428 50.9302 55.0508C50.9261 54.8305 50.952 54.6576 51.0079 54.5323C52.3775 51.4585 53.2553 49.4361 54.6426 46.3655C55.712 43.9984 57.053 40.9995 58.6655 37.3686C58.7285 37.2269 58.7731 37.1107 58.7992 37.02C58.802 37.0086 58.8133 37.0017 58.8244 37.0046C58.8307 37.0062 58.8358 37.0107 58.8384 37.0168C58.9906 37.3515 59.1622 37.7101 59.3534 38.0925C59.4138 38.2137 59.4792 38.3168 59.5494 38.4018C59.5646 38.4199 59.5624 38.4474 59.5443 38.4632C59.5423 38.465 59.5401 38.4665 59.5379 38.4679C59.5266 38.4736 59.5199 38.4773 59.5179 38.4789C59.4953 38.4943 59.4779 38.516 59.4679 38.5411C59.0482 39.5667 58.7477 40.2836 58.5663 40.6918C57.127 43.9365 56.1147 46.2123 55.5295 47.5192C54.2772 50.3159 52.8079 53.5216 51.1216 57.1362ZM51.2192 56.7278C51.2566 56.6223 51.302 56.514 51.3553 56.4028C53.7894 51.2932 55.8355 46.6582 58.8361 39.8851C58.9186 39.6994 59.1182 39.2194 59.4349 38.4451C59.4417 38.4291 59.4412 38.4109 59.4333 38.3955L58.8415 37.2104C58.8381 37.2029 58.8292 37.2 58.8216 37.2039C58.8186 37.2055 58.8161 37.2081 58.8146 37.2112L51.0763 54.5528C51.0656 54.5768 51.0579 54.6022 51.0533 54.6283C50.9787 55.0493 51.0602 55.5829 51.0648 55.9346C51.0678 56.2054 51.1424 56.4328 51.1847 56.7247C51.1856 56.7347 51.1943 56.7419 51.204 56.7409C51.2112 56.7401 51.2172 56.7349 51.2192 56.7278Z" fill="#FFFDEF"/>
<path d="M51.2193 56.7278C51.2166 56.7374 51.2068 56.743 51.1974 56.7403C51.1904 56.7382 51.1854 56.7321 51.1847 56.7247C51.1424 56.4327 51.0679 56.2053 51.0648 55.9346C51.0602 55.5829 50.9787 55.0493 51.0533 54.6283C51.0579 54.6022 51.0656 54.5768 51.0763 54.5527L58.8146 37.2112C58.8184 37.2034 58.8275 37.2 58.8348 37.2035C58.8378 37.205 58.8401 37.2074 58.8415 37.2104L59.4333 38.3955C59.4411 38.4109 59.4417 38.4292 59.4349 38.4451C59.1182 39.2194 58.9187 39.6994 58.8362 39.8851C55.8355 46.6582 53.7895 51.2932 51.3553 56.4028C51.302 56.514 51.2566 56.6224 51.2193 56.7278Z" fill="#ACBBDA"/>
<path d="M30.304 43.2691C30.2773 43.2792 30.2477 43.2653 30.2377 43.2381C30.2323 43.2231 30.2338 43.2064 30.2417 43.1927L32.2708 39.7641C32.311 39.6963 32.3694 39.6417 32.4392 39.6067C33.6236 39.0181 34.7688 38.4601 35.994 38.0446C36.4859 37.8778 36.9962 37.7826 37.525 37.759C37.8294 37.7456 38.3382 37.8432 38.0846 38.2964C37.977 38.489 37.8238 38.6653 37.6249 38.8253C36.2538 39.9293 34.7703 40.8052 33.1217 41.7086C32.0482 42.2966 31.2291 42.757 30.6645 43.0896C30.5343 43.1657 30.4141 43.2255 30.304 43.2691Z" fill="#C8CEDE"/>
<path d="M52.2123 59.6082C51.7394 59.73 51.4476 59.5791 51.3368 59.1557C51.2871 58.9658 51.3471 58.8082 51.5167 58.6828C51.9671 57.8518 52.3916 56.9846 52.7903 56.0812C53.5112 54.447 54.2688 52.7567 55.063 51.0102C57.6978 45.2147 59.0774 42.1827 59.202 41.9141C59.6508 40.947 60.1097 39.839 60.534 38.8293C60.5536 38.7824 60.6003 38.7536 60.65 38.7577L61.4332 38.8301C61.4569 38.8321 61.4745 38.8534 61.4726 38.8777C61.4722 38.8816 61.4714 38.8855 61.4701 38.8892C61.1294 39.8193 60.7389 40.7691 60.2988 41.7387C57.831 47.1769 55.4432 52.4905 53.1354 57.6795C52.8418 58.34 52.5341 58.9829 52.2123 59.6082Z" fill="#1369D1"/>
<path d="M22.2167 51.3681C22.0533 51.1351 21.9003 50.9363 21.7578 50.7716C20.3805 49.1772 18.7375 47.8896 16.8288 46.9085C15.4996 46.225 14.1466 45.6822 12.7698 45.2803C9.89982 44.4431 6.97555 44.0296 3.99698 44.0402C3.98428 44.0409 3.97338 44.0309 3.97269 44.0179C3.97232 44.0109 3.97502 44.004 3.98008 43.9992L5.87546 42.0579C5.92881 42.0038 6.00228 41.9755 6.0776 41.98C8.35521 42.12 10.5926 42.5974 12.7898 43.4122C16.0172 44.6091 18.8364 46.5134 20.957 49.2645C21.2158 49.6003 21.6487 50.2949 22.2559 51.3484C22.2612 51.3566 22.2587 51.3677 22.2505 51.3735H22.2498C22.2388 51.381 22.2242 51.3786 22.2167 51.3681ZM21.0838 49.614C20.8819 49.3323 20.662 49.0579 20.4243 48.7909C20.2222 48.5642 20.0469 48.2951 19.874 48.1196C19.6608 47.9019 19.2642 47.5192 18.6842 46.9715C18.4736 46.7732 18.2061 46.5867 18.0124 46.4191C17.8433 46.2732 17.6722 46.1382 17.499 46.0138C16.2897 45.1451 15.0131 44.4284 13.669 43.8639C11.2361 42.8425 8.71511 42.246 6.10596 42.0745C5.98159 42.0663 5.86317 42.1294 5.79851 42.2381L5.65707 42.4774C5.61017 42.5565 5.63482 42.6596 5.71214 42.7076C5.73214 42.7201 5.75451 42.728 5.77777 42.7308C8.89268 43.1206 11.7875 43.8782 14.4622 45.0034C15.527 45.452 16.548 45.9706 17.5251 46.5592C18.0621 46.8829 18.522 47.2018 18.9048 47.5161C19.5002 48.005 19.9229 48.3728 20.1729 48.6194C20.298 48.7426 20.5944 49.0836 21.0622 49.6424C21.0666 49.6474 21.074 49.6481 21.0791 49.644H21.0799C21.0889 49.6363 21.0907 49.6231 21.0838 49.614Z" fill="#FFFDEF"/>
<path d="M21.0838 49.6141C21.0907 49.6232 21.089 49.6364 21.08 49.6439H21.0792C21.0741 49.6482 21.0666 49.6475 21.0623 49.6424C20.5945 49.0836 20.2981 48.7426 20.173 48.6193C19.923 48.3727 19.5002 48.005 18.9048 47.5161C18.5221 47.2018 18.0622 46.8829 17.5252 46.5592C16.5481 45.9705 15.5271 45.4519 14.4623 45.0034C11.7876 43.8781 8.89276 43.1206 5.77786 42.7308C5.68805 42.7199 5.62393 42.6365 5.63458 42.5446C5.63736 42.5208 5.64503 42.4979 5.65719 42.4774L5.79863 42.2381C5.86329 42.1293 5.98171 42.0663 6.10609 42.0744C8.71524 42.246 11.2363 42.8425 13.6692 43.8639C15.0132 44.4284 16.2899 45.1451 17.4991 46.0138C17.6723 46.1382 17.8434 46.2732 18.0125 46.4191C18.2062 46.5867 18.4737 46.7732 18.6843 46.9715C19.2643 47.5192 19.6609 47.9019 19.8741 48.1196C20.0471 48.2951 20.2223 48.5642 20.4244 48.7909C20.6622 49.0579 20.882 49.3323 21.0838 49.6141Z" fill="#C8CEDE"/>
<path d="M21.1854 51.7443C20.4762 51.0419 19.8177 50.4934 19.21 50.0988C15.9665 47.9954 11.9713 46.9369 8.08682 46.6773C7.20393 46.6185 6.67899 46.5857 6.51196 46.5789C5.71157 46.5458 4.70626 46.5679 3.49596 46.645C3.43448 46.6492 3.37709 46.6484 3.32378 46.6426C3.31321 46.6416 3.30541 46.6321 3.30635 46.6213C3.30672 46.6169 3.30856 46.6128 3.31149 46.6095L4.54972 45.1797C4.57907 45.1457 4.62172 45.1264 4.66654 45.127C7.56368 45.1689 10.3773 45.6288 13.1074 46.5065C15.4793 47.2682 17.7705 48.4187 19.6059 50.0744C20.0722 50.4952 20.6105 51.0431 21.2207 51.7183C21.2225 51.7206 21.2225 51.7239 21.2207 51.7262L21.2054 51.7435C21.2003 51.7493 21.1916 51.7499 21.1858 51.7447C21.1856 51.7446 21.1855 51.7444 21.1854 51.7443ZM18.745 49.5488C18.3284 49.1679 17.8847 48.8358 17.4138 48.5525C16.1241 47.7771 14.7519 47.147 13.2972 46.6623C10.9739 45.8885 8.52771 45.4253 5.95853 45.2726C5.83554 45.2655 5.66413 45.2254 5.54196 45.2262C5.14536 45.2283 4.87582 45.2244 4.73336 45.2144C4.66985 45.21 4.60829 45.238 4.5689 45.2891C4.44183 45.4549 4.3524 45.5924 4.30064 45.7015C4.23145 45.8479 4.07082 45.8801 3.97551 46.0234C3.96147 46.0446 3.96689 46.0735 3.98763 46.0878C3.99453 46.0926 4.00253 46.0953 4.01086 46.0957C5.34284 46.1587 6.64254 46.2264 7.97991 46.3814C8.85202 46.4832 9.31884 46.5383 9.38031 46.5466C10.3006 46.6689 11.2098 46.8462 12.1081 47.0786C13.7965 47.5156 15.3928 48.0612 16.8972 48.7154C17.2236 48.8576 17.4693 48.9777 17.6343 49.0758C17.828 49.1907 18.0068 49.2794 18.1708 49.3418C18.2953 49.39 18.4777 49.4732 18.7181 49.5912C18.7303 49.5975 18.745 49.5922 18.7509 49.5794C18.7556 49.569 18.7532 49.5566 18.745 49.5488ZM19.0617 49.8226C19.0761 49.8357 19.0866 49.8433 19.0932 49.8454C19.0993 49.8476 19.1058 49.8442 19.1079 49.8381C19.1091 49.8344 19.1085 49.8304 19.1063 49.8273C19.0996 49.8173 19.0886 49.8092 19.0732 49.8029C19.0671 49.8009 19.0607 49.8044 19.0588 49.8106C19.0575 49.8149 19.0586 49.8195 19.0617 49.8226Z" fill="#FFFDEF"/>
<path d="M18.745 49.5487C18.7552 49.5583 18.7561 49.5747 18.7471 49.5853C18.7398 49.5939 18.728 49.5963 18.7181 49.5912C18.4778 49.4731 18.2954 49.39 18.1709 49.3417C18.0069 49.2793 17.8281 49.1906 17.6344 49.0757C17.4694 48.9776 17.2237 48.8575 16.8973 48.7153C15.3929 48.0611 13.7965 47.5155 12.1082 47.0785C11.2099 46.8461 10.3007 46.6688 9.38039 46.5466C9.31892 46.5381 8.8521 46.4831 7.97999 46.3813C6.64262 46.2263 5.34292 46.1586 4.01093 46.0957C3.98591 46.0944 3.9666 46.0726 3.96783 46.047C3.96824 46.0386 3.97089 46.0303 3.97558 46.0233C4.0709 45.8801 4.23152 45.8478 4.30071 45.7014C4.35247 45.5923 4.44187 45.4548 4.56898 45.2891C4.60841 45.2379 4.66993 45.2099 4.73344 45.2143C4.8759 45.2243 5.14539 45.2282 5.54204 45.2261C5.66425 45.2253 5.83565 45.2655 5.9586 45.2725C8.52779 45.4252 10.974 45.8885 13.2972 46.6622C14.7519 47.147 16.1242 47.7771 17.4139 48.5524C17.8847 48.8357 18.3284 49.1678 18.745 49.5487Z" fill="#C8CEDE"/>
<path d="M22.5826 54.9093L21.7033 54.9644C21.6839 54.9654 21.6651 54.9573 21.6526 54.9424C20.2675 53.3394 18.539 52.2298 16.6351 51.3563C14.4733 50.3643 12.2522 49.7253 9.97205 49.4393C7.63627 49.1466 5.26437 49.1678 2.91013 49.4063C2.88564 49.4089 2.86368 49.3908 2.86111 49.3657C2.86087 49.3632 2.86078 49.3607 2.86095 49.3582C2.89168 48.7748 2.87813 48.2592 2.82021 47.8111C2.81707 47.7873 2.83348 47.7652 2.85711 47.7616C3.03337 47.7353 3.16277 47.7185 3.24526 47.7112C5.66636 47.5082 8.05594 47.5798 10.4141 47.926C13.3801 48.3612 16.2409 49.3268 18.7788 50.9691C19.9855 51.7497 21.0784 52.7554 22.0576 53.9862C22.3062 54.2983 22.4904 54.5903 22.6103 54.8621C22.6175 54.8792 22.6102 54.8991 22.5939 54.9065C22.5904 54.9082 22.5865 54.9091 22.5826 54.9093Z" fill="#DEDEDD"/>
<path d="M20.578 54.4562C20.2768 54.2517 19.9324 54.0179 19.5373 53.8362C18.7452 53.4705 18.12 53.2116 17.662 53.0595C14.7328 52.0845 11.6822 51.5541 8.54862 51.2212C6.12442 50.9636 4.17835 50.7726 2.71031 50.6483C2.68071 50.6458 2.65871 50.6191 2.6612 50.5888C2.66145 50.5858 2.66194 50.5828 2.66267 50.5799L2.83101 49.8897C2.83473 49.8745 2.8473 49.8632 2.86253 49.8614C4.10303 49.7308 5.53572 49.6253 6.78011 49.6481C8.40342 49.6775 9.99237 49.8386 11.547 50.1313C13.932 50.5799 16.257 51.3582 18.333 52.6275C19.1575 53.1316 19.9128 53.7324 20.5989 54.4295C20.6051 54.4366 20.6046 54.4476 20.5977 54.454C20.5923 54.4589 20.5844 54.4599 20.578 54.4562Z" fill="#DEDEDD"/>
<path d="M19.0731 49.8028C19.0885 49.8091 19.0995 49.8172 19.1062 49.8272C19.1099 49.8325 19.1088 49.8398 19.1036 49.8437C19.1006 49.8459 19.0966 49.8465 19.093 49.8453C19.0864 49.8432 19.0759 49.8356 19.0615 49.8225C19.057 49.8179 19.057 49.8104 19.0614 49.8058C19.0645 49.8026 19.069 49.8015 19.0731 49.8028Z" fill="#ACBBDA"/>
<path d="M51.5167 58.6827C51.3471 58.8081 51.2871 58.9658 51.3369 59.1557C51.4475 59.579 51.7393 59.7298 52.2123 59.6082L52.0893 59.8159C52.0734 59.8428 52.0438 59.8578 52.0132 59.8545C51.4055 59.7868 51.002 59.7393 50.8027 59.7121C46.8239 59.1633 43.791 58.7552 41.704 58.4876C38.2816 58.0495 34.0399 57.5178 28.9789 56.8925C28.7929 56.8694 28.6056 56.8644 28.4171 56.8775C27.9213 56.9106 27.4886 57.3985 27.042 57.6133C26.193 58.022 25.3439 58.2169 24.4949 58.198C23.198 58.1697 22.0008 57.8552 20.9032 57.2545C20.4013 56.9798 20.0939 56.5982 19.8525 56.1095C19.7003 55.8034 19.4621 55.6358 19.14 55.5759C13.0111 54.4328 7.01963 53.3877 1.16544 52.4408C1.12883 52.4348 1.10148 52.4032 1.10013 52.3652C1.09499 52.2205 1.09605 52.0177 1.10319 51.757C1.11087 51.4689 1.36758 51.2321 1.55898 51.0424C1.57245 51.0291 1.59384 51.0295 1.60682 51.0433C1.61017 51.0469 1.61274 51.0511 1.61433 51.0558C1.70761 51.3265 1.89897 51.4786 2.18846 51.5122C3.48743 51.6633 5.20242 51.8878 7.33349 52.1858C10.9528 52.6926 14.3539 53.3158 17.8003 54.257C18.3696 54.4123 18.9081 54.5841 19.4159 54.7724C19.9747 54.9802 20.3728 55.0974 20.6173 55.686C20.741 55.9851 20.824 56.1952 21.133 56.3691C22.4273 57.097 23.943 57.3363 25.4172 57.186C26.1612 57.1104 26.5886 56.8523 27.3333 56.3644C27.8214 56.0442 28.5854 55.9395 29.2049 55.9206C31.1602 55.86 33.2331 55.9765 35.3729 56.1763C38.8219 56.4974 42.3575 57.0031 45.9797 57.6935C47.6609 58.0141 49.3776 58.3661 51.1301 58.7496C51.2229 58.7701 51.3517 58.7478 51.5167 58.6827Z" fill="#1986E3"/>
<path d="M50.1686 55.9373C46.7137 54.5358 43.2419 53.3286 39.598 52.8226C37.379 52.5149 35.2477 52.5433 32.8888 52.8203C30.5415 53.0957 28.2141 53.8842 26.2734 55.2566C26.2109 55.3012 26.0346 55.3812 25.7446 55.4966C25.7289 55.5031 25.7113 55.5026 25.6962 55.495L25.016 55.1771C25.0009 55.1703 24.994 55.1521 25.0007 55.1366C25.0022 55.1332 25.0043 55.1302 25.0068 55.1275C25.3081 54.7994 25.6686 54.4885 26.029 54.2312C28.6646 52.3457 31.7897 51.3093 35.0079 51.1598C37.924 51.0252 40.8677 51.388 43.6747 52.1781C45.8759 52.7977 48.0173 53.5534 50.0987 54.4453C50.1132 54.4516 50.123 54.4659 50.124 54.4822L50.2085 55.9074C50.2097 55.9239 50.1976 55.9382 50.1815 55.9393C50.1771 55.9397 50.1727 55.939 50.1686 55.9373Z" fill="#DEDEDD"/>
<path d="M26.8814 55.3293C26.9598 55.2564 27.0869 55.1701 27.2626 55.0704C29.5546 53.7688 32.1863 53.144 34.778 53.0354C35.7619 52.9937 36.9578 52.9968 37.9539 53.0826C40.1286 53.2689 42.2909 53.6898 44.441 54.3457C46.3604 54.9317 48.2927 55.6347 50.2378 56.4546C50.2604 56.4643 50.2756 56.4863 50.2769 56.5113L50.3423 57.6154C50.3431 57.6305 50.3321 57.6436 50.3177 57.6446C50.3149 57.6448 50.312 57.6445 50.3093 57.6437C46.4816 56.6396 42.531 55.7149 38.5727 55.1633C35.2272 54.6969 31.8871 54.6421 28.5524 54.9988C27.8719 55.0712 27.3178 55.1864 26.8899 55.3443C26.8857 55.3464 26.8806 55.3446 26.8786 55.3403C26.8767 55.3365 26.8779 55.3317 26.8814 55.3293Z" fill="#DEDEDD"/>
<path d="M24.4918 56.3C24.5019 56.3016 24.5087 56.3113 24.5071 56.3216C24.506 56.3291 24.5005 56.3351 24.4933 56.337C24.0035 56.4566 23.5336 56.4589 23.0837 56.344C22.8716 56.2894 22.5667 56.195 22.1691 56.0607C22.1539 56.0554 22.1454 56.0391 22.1498 56.0238V56.0222C22.1536 56.0075 22.1679 55.9983 22.1829 56.0009C22.763 56.1132 23.2848 56.189 23.7486 56.2283C24.1236 56.2604 24.3714 56.2842 24.4918 56.3Z" fill="#1E489E"/>
<path d="M32.1118 4.81787L32.1702 4.81754C32.5128 4.81571 32.789 4.52989 32.7872 4.17916L32.7691 0.631734C32.7673 0.281011 32.4881 -0.00182799 32.1455 8.89672e-06L32.0871 0.000335274C31.7446 0.00217216 31.4683 0.287991 31.4701 0.638713L31.4883 4.18614C31.4901 4.53687 31.7692 4.81971 32.1118 4.81787Z" fill="#001878"/>
<path d="M23.5564 7.51177C23.7809 7.79151 24.1843 7.83204 24.4576 7.60223L24.479 7.58423C24.7522 7.35445 24.7918 6.94136 24.5673 6.66162L22.3652 3.9167C22.1407 3.63697 21.7373 3.59643 21.464 3.82625L21.4426 3.84425C21.1694 4.07402 21.1298 4.48712 21.3543 4.76686L23.5564 7.51177Z" fill="#001878"/>
<path d="M39.9311 7.57248L39.951 7.58978C40.2216 7.82478 40.6271 7.79066 40.8567 7.51353L43.1226 4.77796C43.3521 4.50084 43.3187 4.0857 43.0481 3.8507L43.0282 3.8334C42.7576 3.5984 42.3521 3.63252 42.1225 3.90961L39.8566 6.64518C39.6271 6.92234 39.6604 7.33748 39.9311 7.57248Z" fill="#001878"/>
<path d="M62.5301 38.6044C62.5137 38.1391 62.2844 37.8736 61.8422 37.808C61.3964 37.7414 60.9273 37.6724 60.4349 37.6011C60.3607 37.5903 60.2964 37.5432 60.2627 37.4752L59.4311 35.8108C59.419 35.7865 59.4187 35.7577 59.4303 35.7329C59.6355 35.2867 59.7009 34.6116 59.0952 34.4424C58.6889 34.3285 58.1885 34.1976 57.5941 34.0497C57.5922 34.0492 57.5902 34.0485 57.5883 34.0478C57.5667 34.0388 57.5562 34.0136 57.5649 33.9914C57.7484 33.5324 57.868 33.2357 57.9239 33.1014C58.1068 32.6583 58.1652 32.3137 57.8239 31.995C57.7307 31.9074 57.5244 31.8423 57.2052 31.7998C56.3853 31.6902 55.4707 31.5847 54.4613 31.4835C54.458 31.4832 54.4547 31.4824 54.4517 31.4811C54.4352 31.474 54.4275 31.4544 54.4344 31.4371C54.8413 30.4492 55.0926 29.8438 55.1884 29.6208C55.3867 29.1613 55.5028 28.8418 55.1738 28.4971C55.0918 28.4111 54.8746 28.3426 54.522 28.2917C52.7415 28.0352 51.0154 27.9142 49.344 27.9289C45.1428 27.9651 41.0254 29.0881 37.5074 31.4473C37.4885 31.4604 37.4641 31.467 37.4344 31.467C37.426 31.4671 37.4178 31.4647 37.4108 31.4601C37.3907 31.4471 37.3848 31.4198 37.3975 31.3993C37.6245 31.0211 37.7701 30.5964 37.8341 30.1253C37.8956 29.6694 37.8215 29.2518 37.612 28.8725C37.5295 28.723 37.4803 28.6225 37.4644 28.5711C37.4548 28.5422 37.4525 28.5111 37.4575 28.4806C37.6896 26.9949 38.4021 25.6122 39.3429 24.5097C39.764 24.0166 40.1135 23.5819 40.3912 23.2058C41.6917 21.447 42.365 19.1256 42.2966 16.9371C42.2282 14.7471 41.4788 12.7333 40.1614 11.0202C37.3222 7.32869 32.3332 5.9665 28.1128 7.93936C23.4104 10.1365 21.0286 15.4294 22.6241 20.4594C22.9941 21.6246 23.5268 22.6332 24.2221 23.4851C24.7622 24.1472 25.1273 24.6044 25.3173 24.8568C26.0742 25.8625 26.5779 26.9676 26.8284 28.1721C26.8587 28.318 26.8569 28.4315 26.823 28.5128C26.4487 29.3997 26.3142 30.2386 26.8914 31.0806C26.9437 31.1572 26.9942 31.2372 27.0428 31.3206C27.0447 31.3245 27.0444 31.3291 27.042 31.3326C27.0383 31.3379 27.0312 31.3393 27.0259 31.3355C26.8953 31.2301 26.7892 31.1058 26.6424 30.9916C25.8963 30.4082 24.9479 29.86 23.797 29.3469C21.4359 28.2932 18.7642 27.7991 16.234 27.6904C15.9004 27.6763 15.3301 27.6571 14.523 27.633C14.2131 27.6236 13.9528 27.7479 13.7422 28.006C8.48745 34.4436 4.94986 38.7888 3.12926 41.0415C2.87308 41.3584 2.87614 41.655 3.13849 41.9315C3.39675 42.203 3.80948 42.0818 4.13461 42.0133C4.14155 42.012 4.14869 42.014 4.15392 42.0189C4.16302 42.0274 4.16367 42.0418 4.15539 42.0511C3.46929 42.8045 2.86312 43.4768 2.33687 44.068C1.99868 44.4473 2.01713 44.94 2.47754 45.1501C2.63383 45.2214 2.80417 45.2262 2.98864 45.1643C2.99725 45.1613 3.0068 45.1631 3.01378 45.1691C3.02484 45.1785 3.02632 45.1954 3.01709 45.2068C2.75678 45.532 2.39324 45.9761 1.92643 46.539C1.75886 46.7415 1.6869 46.9527 1.71045 47.1725C1.80626 48.0596 1.8283 48.7152 1.77654 49.139C1.7745 49.1552 1.77038 49.1708 1.76425 49.1854C1.73454 49.2557 1.68739 49.3263 1.62281 49.3971C1.09351 49.9769 0.66845 50.4395 0.347689 50.7853C0.110976 51.0402 -0.003318 51.3532 0.00488675 51.7241C0.0210105 52.4135 -0.107326 52.9918 0.353078 53.3515C0.448882 53.4265 0.684329 53.4949 1.05942 53.5568C6.43402 54.4466 12.3195 55.4753 18.7158 56.6431C18.7862 56.656 18.8465 56.701 18.8795 56.7651C19.1588 57.3065 19.5705 57.7475 20.1147 58.088C20.562 58.3676 20.8848 58.5467 21.0831 58.6254C21.9727 58.9785 22.8898 59.2004 23.8347 59.2912C24.9992 59.4037 26.1029 59.2266 27.192 58.8127C27.6783 58.6275 28.1166 58.3689 28.5071 58.0368C28.5498 58.0007 28.6048 57.9839 28.6593 57.9904C36.6953 58.952 44.4098 59.947 51.8027 60.9752C52.8649 61.1231 53.1147 60.5904 53.5405 59.7075C53.6758 59.4273 53.8218 59.1099 53.9787 58.7553C55.8981 54.402 58.7086 48.1522 62.4102 40.0059C62.5816 39.6298 62.5462 39.0593 62.5301 38.6044ZM58.7992 37.0196C58.8008 37.0131 58.8052 37.0078 58.8112 37.0052C58.8217 37.0006 58.8339 37.0056 58.8384 37.0164C58.9906 37.3511 59.1623 37.7097 59.3534 38.0921C59.4139 38.2133 59.4792 38.3164 59.5494 38.4014C59.5511 38.4034 59.5526 38.4055 59.5539 38.4078C59.5656 38.4285 59.5584 38.4552 59.5379 38.4675C59.5266 38.4732 59.52 38.4769 59.5179 38.4785C59.4953 38.4939 59.4779 38.5156 59.4679 38.5407C59.0482 39.5663 58.7477 40.2832 58.5663 40.6914C57.127 43.9361 56.1147 46.2119 55.5296 47.5188C54.2772 50.3155 52.8079 53.5212 51.1216 57.1358C51.1193 57.1411 51.1145 57.1448 51.1089 57.1455C51.1 57.1466 51.092 57.1402 51.0909 57.1311C50.9971 56.436 50.9435 55.7425 50.9302 55.0505C50.9262 54.8301 50.952 54.6573 51.0079 54.5319C52.3775 51.4582 53.2553 49.4357 54.6426 46.3652C55.712 43.9981 57.053 40.9991 58.6655 37.3682C58.7285 37.2265 58.7731 37.1103 58.7992 37.0196ZM57.2083 35.0869L58.3181 35.3702C58.3194 35.3705 58.3206 35.3709 58.3218 35.3713C58.3437 35.3795 58.3552 35.404 58.3473 35.426C58.0424 36.2555 57.7248 37.0587 57.3942 37.8356C55.5189 42.2448 53.6803 46.3305 51.5767 51.0112C51.2046 51.8375 50.8495 52.6637 50.4322 53.4633C50.4185 53.4886 50.3885 53.4992 50.363 53.4877C49.9311 53.293 49.4929 53.1084 49.0487 52.9337C45.1019 51.385 41.0068 50.303 36.8333 50.1259C36.1308 50.0965 35.2807 50.1366 34.283 50.2463C32.5037 50.4422 30.6698 50.809 29.1088 51.4346C28.2505 51.7787 27.4065 52.2485 26.577 52.8439C26.5641 52.8532 26.5466 52.8504 26.5378 52.8377L26.537 52.8369C26.5283 52.8255 26.53 52.8092 26.5408 52.7999C27.1383 52.2879 27.7537 51.8545 28.387 51.4999C29.2394 51.0222 30.0549 50.5949 30.918 50.262C33.0732 49.4305 35.3019 48.9505 37.6041 48.8219C41.6654 48.5945 45.6975 49.3106 49.6036 50.7074C49.8634 50.8003 50.084 50.7814 50.2654 50.6507C50.376 50.571 50.499 50.3753 50.6343 50.0637C53.928 42.4714 56.0929 37.4922 57.129 35.1262C57.143 35.0952 57.1763 35.0786 57.2083 35.0869ZM26.8814 55.329C26.9598 55.2561 27.0869 55.1698 27.2626 55.0701C29.5546 53.7685 32.1863 53.1437 34.7781 53.0351C35.7619 52.9934 36.9578 52.9965 37.9539 53.0823C40.1285 53.2686 42.2909 53.6896 44.4409 54.3454C46.3604 54.9314 48.2927 55.6344 50.2377 56.4544C50.2603 56.464 50.2756 56.486 50.2769 56.511L50.3422 57.6151C50.3424 57.618 50.3421 57.6211 50.3413 57.624C50.3375 57.6387 50.3231 57.6474 50.3092 57.6434C46.4815 56.6393 42.5309 55.7146 38.5726 55.163C35.2271 54.6966 31.887 54.6418 28.5523 54.9985C27.8718 55.0709 27.3177 55.1861 26.8898 55.344C26.886 55.3459 26.8814 55.3446 26.8791 55.341C26.8765 55.3371 26.8776 55.3317 26.8814 55.329ZM26.2735 55.2559C26.211 55.3005 26.0347 55.3804 25.7447 55.4959C25.729 55.5024 25.7114 55.5018 25.6963 55.4943L25.0161 55.1764C25.0128 55.1749 25.0098 55.1728 25.0072 55.1702C24.9954 55.1583 24.9952 55.1389 25.0068 55.1268C25.3081 54.7987 25.6686 54.4878 26.0291 54.2305C28.6646 52.345 31.7898 51.3086 35.0079 51.1591C37.924 51.0246 40.8678 51.3873 43.6747 52.1774C45.876 52.797 48.0173 53.5527 50.0987 54.4446C50.1132 54.4508 50.1231 54.4652 50.1241 54.4815L50.2086 55.9067C50.2089 55.9112 50.2082 55.9157 50.2066 55.9199C50.2006 55.9353 50.1836 55.9427 50.1686 55.9366C46.7137 54.5351 43.242 53.3279 39.598 52.8219C37.3791 52.5142 35.2477 52.5426 32.8889 52.8196C30.5415 53.0949 28.2142 53.8835 26.2735 55.2559ZM56.857 32.8166C56.8599 32.8168 56.8628 32.8176 56.8655 32.8187C56.8817 32.8253 56.8896 32.8441 56.8831 32.8606C56.3841 34.1113 55.875 35.3444 55.3559 36.56C53.6476 40.5565 51.7773 44.8823 49.7451 49.5372C49.7324 49.5665 49.7004 49.5814 49.6705 49.5718C47.1457 48.7353 44.5993 48.1294 42.0422 47.8673C37.5804 47.4093 33.0664 48.0334 29.0281 50.0093C28.0797 50.4744 27.2834 50.9914 26.5025 51.6422C26.5023 51.6424 26.5022 51.6425 26.502 51.6427C26.4944 51.6489 26.4833 51.6477 26.4772 51.6398C26.4711 51.6332 26.4711 51.6229 26.4772 51.6163C27.1028 50.9636 27.9498 50.2483 29.0182 49.4703C30.1055 48.6786 31.1572 48.0378 32.1733 47.5478C34.7404 46.3092 37.4082 45.5469 40.1768 45.261C42.6739 45.0029 45.2019 45.3515 47.7329 45.9535C48.1792 46.06 48.489 45.9037 48.6622 45.4845C49.2458 44.0717 50.998 39.7772 53.9186 32.6009C53.9309 32.5705 53.9613 32.5517 53.994 32.5545L56.857 32.8166ZM37.502 32.9189C37.5297 32.7993 37.6696 32.7182 37.7772 32.6434C40.8793 30.504 44.3188 29.3307 48.0957 29.1235C50.131 29.0126 52.0855 29.1432 54.0462 29.3659C54.0493 29.3662 54.0523 29.367 54.0551 29.3683C54.0716 29.3753 54.0793 29.3951 54.0723 29.4124L47.7875 44.7945C47.7804 44.8128 47.7612 44.8231 47.7421 44.8189C46.3171 44.4926 44.897 44.2761 43.4817 44.1696C41.3765 44.0115 39.2944 44.1618 37.1768 44.6473C34.5508 45.2496 32.0869 46.2482 29.7852 47.6432C28.2395 48.5804 26.8314 49.712 25.6301 51.0269C25.6263 51.032 25.6192 51.0331 25.6141 51.0293C25.609 51.0254 25.6079 51.018 25.6117 51.0128C26.8609 48.7999 28.0056 46.8127 29.0458 45.051C31.5125 40.8739 32.7507 38.777 32.7604 38.7603C32.8009 38.6901 32.8619 38.6343 32.9349 38.6005C33.7381 38.2283 34.4752 37.7617 34.7119 36.826C34.7462 36.6891 34.7695 36.6041 34.7818 36.5711C34.7932 36.5398 34.8158 36.5141 34.8449 36.4995C35.615 36.1178 36.4151 35.3726 36.5727 34.4842C36.6086 34.2801 36.6265 34.1778 36.6265 34.1773C36.6324 34.15 36.648 34.1258 36.6703 34.1096C37.0862 33.8105 37.3782 33.4367 37.502 32.9189ZM35.1039 29.8892C35.6935 29.7711 36.1554 29.6539 36.6027 29.3533C36.6068 29.3505 36.6114 29.3484 36.6161 29.3473C36.6397 29.3413 36.6636 29.3564 36.6696 29.3808C36.7521 29.7481 36.7434 30.0904 36.6434 30.4078C36.5258 30.78 36.057 30.854 35.7373 30.9452C35.5046 31.0113 35.2656 31.0683 35.0201 31.116C33.5096 31.4538 31.9823 31.5113 30.4385 31.2883C29.6612 31.1755 29.0909 31.0756 28.7276 30.9885C28.5349 30.9423 28.3205 30.8539 28.0843 30.7233C27.567 30.4384 27.5324 29.8852 27.6592 29.3603C27.6599 29.3575 27.6609 29.3548 27.6624 29.3523C27.6704 29.338 27.6883 29.3331 27.7023 29.3414C28.0614 29.5534 28.4568 29.6992 28.8882 29.779C29.5067 29.8933 30.1872 29.977 30.9296 30.03C32.3408 30.1316 33.7028 30.1308 35.1039 29.8892ZM30.9857 20.8702C30.9858 20.8558 30.9971 20.8442 31.0111 20.8442H33.3807C33.3813 20.8442 33.3818 20.8442 33.3823 20.8443C33.3963 20.8451 33.4069 20.8575 33.4061 20.8718L32.9419 28.638L32.9296 28.7561L32.9188 28.9803C32.918 29.004 32.899 29.0228 32.8758 29.0228H31.5007C31.4827 29.0229 31.4678 29.0083 31.4669 28.9898L30.9858 20.8718C30.9857 20.8712 30.9857 20.8707 30.9857 20.8702ZM27.9421 32.2524C27.9582 32.0658 27.9721 31.8809 28.185 31.8746C28.3064 31.8709 28.3866 31.8738 28.4255 31.8833C29.9443 32.2452 31.3378 32.4123 32.6059 32.3845C33.2239 32.3714 34.0156 32.2828 34.9809 32.1185L36.2753 31.8227C36.3249 31.8113 36.3751 31.8405 36.3913 31.8904C36.5366 32.3373 36.5266 32.8449 36.0908 33.1054C35.8033 33.2764 35.427 33.3835 34.9617 33.4264C32.7735 33.7704 30.5983 33.7263 28.5316 33.1542C28.0976 33.034 27.9011 32.7334 27.9421 32.2524ZM28.9335 34.2794C28.9378 34.2577 28.9585 34.2436 28.9797 34.248C30.501 34.5628 32.0405 34.668 33.5982 34.5636C34.2095 34.5153 34.8131 34.4261 35.4091 34.296C35.4096 34.2959 35.4102 34.2957 35.4108 34.2956C35.435 34.291 35.4583 34.3077 35.4629 34.333C35.4696 34.3671 35.4675 34.3964 35.4567 34.4211C35.2907 34.8162 35.0045 35.1348 34.5982 35.3772C34.1191 35.6626 33.618 35.836 33.0948 35.8974C32.5225 35.9645 31.956 35.9524 31.3955 35.8612C31.0414 35.8433 30.6289 35.7366 30.158 35.5409C29.5918 35.3059 29.1844 34.8933 28.9359 34.303C28.9328 34.2956 28.932 34.2873 28.9335 34.2794ZM31.0483 36.95C31.0527 36.9217 31.0788 36.9025 31.1064 36.9071C31.4062 36.9611 31.7805 36.9905 32.2294 36.9952C32.6777 36.9999 33.0525 36.9784 33.3538 36.9306C33.3693 36.9286 33.3848 36.9341 33.3959 36.9453C33.4158 36.9655 33.4159 36.9985 33.3961 37.0188C33.0431 37.3619 32.6524 37.5311 32.224 37.5263C31.7951 37.5216 31.4077 37.3443 31.0619 36.9944C31.0508 36.9826 31.0457 36.9662 31.0483 36.95ZM25.9783 23.848C25.6775 23.4802 25.4118 23.1492 25.1813 22.8549C23.3266 20.4878 22.7832 17.3889 23.7194 14.4969C24.86 10.9714 28.1266 8.43123 31.7551 8.2282C33.6513 8.12117 35.6504 8.66729 37.2168 9.80363C38.9055 10.9423 40.2744 12.8829 40.8331 14.8651C41.2999 16.5219 41.2761 18.2088 40.7617 19.9259C40.5116 20.7611 40.0917 21.6183 39.5019 22.4976C39.362 22.7058 39.0805 23.0576 38.6572 23.5528C37.7711 24.5908 37.0132 25.7901 36.6258 27.0846C36.5321 27.3993 36.4859 27.7582 36.3991 28.0659C36.2945 28.4373 35.8364 28.6223 35.4545 28.7143C35.0486 28.8119 34.5616 28.8919 33.9933 28.9543C33.9923 28.9545 33.9912 28.9545 33.9901 28.9545C33.9812 28.954 33.9744 28.9462 33.9749 28.937L34.071 27.1114L34.4284 20.7797C34.4309 20.7342 34.4641 20.6964 34.5083 20.6884C35.6635 20.4909 36.9109 19.9251 37.193 18.6353C37.3437 17.947 37.2074 17.4056 36.7842 17.0111C36.2061 16.4721 35.2762 16.3572 34.6144 16.834C33.815 17.4093 33.5737 18.7455 33.5314 19.6835C33.5293 19.7296 33.4954 19.7676 33.4507 19.774C33.3344 19.7902 33.1361 19.8021 32.8558 19.8094C32.2297 19.8262 31.6015 19.8251 30.9712 19.8062C30.9229 19.8045 30.8832 19.7666 30.8782 19.7173C30.8582 19.4949 30.8388 19.2659 30.8198 19.0303C30.7368 18.0286 30.3072 16.7837 29.2619 16.5688C28.2535 16.3627 27.3019 17.0355 27.1713 18.123C27.0683 18.9816 27.5917 19.7929 28.3242 20.2084C28.7402 20.4444 29.2619 20.6105 29.889 20.7065C29.9108 20.7098 29.9283 20.7264 29.9328 20.7482C29.96 20.8757 29.9751 20.9717 29.9782 21.0362C30.0819 23.2128 30.238 25.3879 30.3487 27.5646L30.4225 28.9094C30.4225 28.9105 30.4225 28.9116 30.4223 28.9127C30.4211 28.9248 30.4101 28.9336 30.3978 28.9323C29.5723 28.8292 28.7331 28.7639 28.1235 28.3437C28.0318 28.2802 27.9701 28.1671 27.9383 28.0045C27.8604 27.6032 27.7625 27.2084 27.6447 26.8202C27.2614 25.729 26.7059 24.7382 25.9783 23.848ZM34.5567 19.6025C34.6064 19.262 34.643 19.0125 34.6666 18.8541C34.7458 18.3222 35.1332 17.4408 35.7873 17.6588C36.1124 17.7673 36.2154 18.1105 36.1201 18.4402C35.9164 19.1476 35.2969 19.4915 34.6074 19.6505C34.6027 19.6515 34.5979 19.6517 34.5931 19.651C34.5699 19.6479 34.5536 19.6261 34.5567 19.6025ZM29.8382 19.6261C29.8383 19.6278 29.8381 19.6296 29.8378 19.6313C29.8353 19.6445 29.8231 19.6531 29.8106 19.6505C29.3786 19.5676 29.021 19.4149 28.7376 19.1925C28.3149 18.8596 27.9613 18.09 28.577 17.7154C29.1419 17.3723 29.5523 18.0475 29.6699 18.4968C29.7668 18.8667 29.8229 19.2431 29.8382 19.6261ZM4.84091 40.7779L14.5169 28.8646C14.5583 28.8133 14.62 28.7835 14.6852 28.7835C18.9563 28.7898 23.5188 29.6397 26.7961 32.6379C26.8355 32.6741 26.8658 32.7192 26.8845 32.7693C26.9173 32.8596 26.9481 32.9603 26.9767 33.0715C27.0843 33.4854 27.3972 33.8506 27.7446 34.0835C27.7763 34.1045 27.7976 34.1387 27.803 34.1772C27.9521 35.2954 28.6538 36.0611 29.6461 36.4986C29.6868 36.5165 29.717 36.5529 29.7276 36.597C29.8905 37.2958 30.2753 37.8377 30.882 38.2228C31.085 38.3519 31.2464 38.4518 31.4523 38.4958C31.4557 38.4966 31.459 38.4978 31.462 38.4997C31.477 38.5087 31.4819 38.5285 31.4731 38.5439C30.6517 39.9304 29.405 42.0578 27.7331 44.9259C26.719 46.6645 25.7291 48.4385 24.7632 50.2479C24.3891 50.9488 24.0594 51.6536 23.774 52.3624C23.7718 52.3676 23.7676 52.3717 23.7624 52.3738C23.7517 52.378 23.7397 52.3725 23.7355 52.3616C23.0031 50.1393 21.8156 48.3191 20.13 46.6721C18.3177 44.902 16.1932 43.538 13.7568 42.58C10.8781 41.4474 7.91075 40.8567 4.85479 40.8079C4.85079 40.8077 4.84699 40.8061 4.84385 40.8036C4.83589 40.7971 4.83458 40.7856 4.84091 40.7779ZM24.4934 56.3363C24.0035 56.4559 23.5337 56.4583 23.0837 56.3434C22.8716 56.2888 22.5667 56.1944 22.1691 56.0601C22.1539 56.0547 22.1455 56.0384 22.1499 56.0231V56.0216C22.1536 56.0069 22.1679 55.9977 22.1829 56.0003C22.763 56.1125 23.2849 56.1883 23.7486 56.2277C24.1237 56.2597 24.3714 56.2836 24.4918 56.2993C24.4992 56.3005 24.505 56.306 24.5068 56.3134C24.5093 56.3236 24.5032 56.3338 24.4934 56.3363ZM3.98007 43.9988L5.87544 42.0575C5.9288 42.0034 6.00231 41.9751 6.07758 41.9796C8.3552 42.1196 10.5926 42.5971 12.7898 43.4118C16.0172 44.6087 18.8364 46.5131 20.957 49.2642C21.2158 49.5999 21.6487 50.2945 22.2559 51.348C22.2611 51.3562 22.2587 51.3674 22.2505 51.3732H22.2498C22.2388 51.3806 22.2242 51.3782 22.2167 51.3677C22.0532 51.1347 21.9003 50.9359 21.7578 50.7712C20.3805 49.1768 18.7375 47.8892 16.8288 46.9081C15.4996 46.2245 14.1466 45.6818 12.7698 45.2799C9.89981 44.4426 6.97553 44.0293 3.99696 44.0397C3.99011 44.0401 3.98341 44.0373 3.97876 44.0322C3.97015 44.0226 3.97072 44.0077 3.98007 43.9988ZM3.3114 46.6091L4.54962 45.1792C4.57897 45.1452 4.62163 45.1259 4.66645 45.1265C7.56358 45.1684 10.3772 45.6283 13.1073 46.506C15.4792 47.2677 17.7704 48.4182 19.6058 50.0739C20.0721 50.4946 20.6104 51.0426 21.2206 51.7178C21.2224 51.7201 21.2224 51.7233 21.2206 51.7256L21.2053 51.743C21.2051 51.7431 21.205 51.7433 21.2048 51.7434C21.1995 51.749 21.1908 51.7492 21.1853 51.7437C20.4761 51.0413 19.8177 50.4928 19.21 50.0983C15.9665 47.9948 11.9713 46.9364 8.08677 46.6767C7.20388 46.6179 6.67894 46.5851 6.5119 46.5783C5.71151 46.5452 4.70621 46.5673 3.4959 46.6444C3.43443 46.6486 3.37704 46.6478 3.32373 46.642C3.31944 46.6416 3.31544 46.6398 3.3123 46.6367C3.30454 46.6294 3.30413 46.617 3.3114 46.6091ZM2.85716 47.7612C3.03342 47.7349 3.16282 47.7181 3.24531 47.7108C5.66641 47.5078 8.05603 47.5794 10.4141 47.9256C13.3801 48.3608 16.2409 49.3264 18.7788 50.9687C19.9855 51.7493 21.0785 52.755 22.0577 53.9858C22.3062 54.2979 22.4904 54.5899 22.6103 54.8617C22.6119 54.8654 22.6128 54.8695 22.6131 54.8735C22.6141 54.8922 22.6005 54.908 22.5826 54.9088L21.7033 54.9639C21.6839 54.9649 21.6652 54.9568 21.6526 54.9419C20.2676 53.3389 18.539 52.2293 16.6351 51.3558C14.4733 50.3638 12.2523 49.7248 9.9721 49.4389C7.63632 49.1461 5.26441 49.1674 2.91018 49.4058C2.90777 49.406 2.90537 49.4061 2.90296 49.4059C2.87838 49.4045 2.85961 49.3829 2.861 49.3578C2.89173 48.7744 2.87818 48.2587 2.82026 47.8107C2.81711 47.7869 2.83352 47.7648 2.85716 47.7612ZM2.66269 50.5791L2.83103 49.889C2.83475 49.8738 2.84732 49.8625 2.86255 49.8607C4.10306 49.7301 5.53574 49.6246 6.78013 49.6474C8.40344 49.6768 9.99239 49.8379 11.547 50.1306C13.932 50.5792 16.257 51.3575 18.333 52.6267C19.1575 53.1309 19.9128 53.7316 20.5989 54.4288C20.6037 54.4343 20.6046 54.4424 20.6011 54.4488C20.5966 54.4572 20.5863 54.4602 20.5781 54.4555C20.2769 54.251 19.9325 54.0172 19.5375 53.8355C18.7453 53.4698 18.1202 53.2109 17.6621 53.0587C14.7329 52.0837 11.6823 51.5533 8.54872 51.2205C6.12457 50.9629 4.17845 50.7719 2.71041 50.6476C2.70747 50.6473 2.70453 50.6468 2.70163 50.646C2.67278 50.6386 2.65539 50.6086 2.66269 50.5791ZM61.4702 38.8885C61.1294 39.8187 60.739 40.7685 60.2988 41.738C57.8311 47.1762 55.4433 52.4898 53.1354 57.6788C52.8418 58.3393 52.5341 58.9822 52.2123 59.6076L52.0893 59.8153C52.0734 59.8422 52.0438 59.8572 52.0132 59.8539C51.4055 59.7862 51.002 59.7387 50.8027 59.7114C46.8239 59.1627 43.791 58.7545 41.7039 58.487C38.2816 58.0489 34.0399 57.5172 28.9789 56.8919C28.7929 56.8688 28.6056 56.8638 28.4171 56.8769C27.9213 56.91 27.4886 57.3979 27.042 57.6127C26.193 58.0214 25.3439 58.2163 24.4949 58.1974C23.198 58.1691 22.0008 57.8546 20.9032 57.2539C20.4013 56.9792 20.0939 56.5976 19.8525 56.1089C19.7003 55.8028 19.4621 55.6352 19.14 55.5753C13.0111 54.4322 7.01962 53.3871 1.16543 52.4402C1.12881 52.4342 1.10147 52.4026 1.10012 52.3646C1.09497 52.2199 1.09604 52.0171 1.10318 51.7563C1.11085 51.4683 1.36757 51.2314 1.55897 51.0418C1.56244 51.0384 1.56661 51.0358 1.57114 51.0341C1.58873 51.0277 1.60808 51.0371 1.61432 51.0551C1.7076 51.3259 1.89896 51.478 2.18845 51.5115C3.48741 51.6626 5.20241 51.8872 7.33348 52.1852C10.9528 52.6919 14.3539 53.3152 17.8003 54.2563C18.3696 54.4116 18.9081 54.5834 19.4159 54.7718C19.9747 54.9795 20.3729 55.0968 20.6173 55.6854C20.741 55.9844 20.824 56.1945 21.133 56.3685C22.4273 57.0964 23.943 57.3356 25.4172 57.1853C26.1612 57.1098 26.5886 56.8517 27.3333 56.3638C27.8214 56.0435 28.5854 55.9388 29.2048 55.92C31.1602 55.8594 33.2331 55.9758 35.3729 56.1757C38.8219 56.4967 42.3575 57.0025 45.9796 57.6929C47.6608 58.0134 49.3776 58.3654 51.1301 58.7489C51.2228 58.7694 51.3517 58.7471 51.5167 58.6821C51.9671 57.851 52.3916 56.9838 52.7902 56.0805C53.5112 54.4463 54.2688 52.7559 55.063 51.0095C57.6978 45.214 59.0774 42.182 59.2019 41.9133C59.6508 40.9462 60.1096 39.8382 60.5339 38.8286C60.5536 38.7817 60.6003 38.7528 60.65 38.757L61.4332 38.8294C61.437 38.8297 61.4408 38.8306 61.4444 38.8319C61.4668 38.8404 61.4783 38.8657 61.4702 38.8885Z" fill="#001878"/>
<path d="M44.3009 14.1231C44.4151 14.4551 44.7706 14.6295 45.0949 14.5126L48.4167 13.3149C48.741 13.1979 48.9113 12.834 48.7971 12.5019L48.7869 12.4722C48.6727 12.1402 48.3172 11.9658 47.9929 12.0827L44.6711 13.2804C44.3468 13.3974 44.1764 13.7613 44.2906 14.0934L44.3009 14.1231Z" fill="#001878"/>
<path d="M15.9343 13.3255L19.2439 14.5255C19.5696 14.6435 19.9272 14.4689 20.0425 14.1355L20.0533 14.1043C20.1687 13.7708 19.9981 13.4047 19.6724 13.2867L16.3627 12.0867C16.037 11.9686 15.6795 12.1432 15.5642 12.4767L15.5534 12.5079C15.4381 12.8414 15.6086 13.2074 15.9343 13.3255Z" fill="#001878"/>
<path d="M19.4588 21.107L16.3759 22.3694C16.0555 22.5007 15.8996 22.873 16.0277 23.2011L16.0398 23.2318C16.1679 23.5598 16.5316 23.7194 16.852 23.5882L19.9349 22.3257C20.2553 22.1945 20.4112 21.8222 20.283 21.4941L20.271 21.4634C20.1429 21.1353 19.7792 20.9757 19.4588 21.107Z" fill="#001878"/>
<path d="M44.4455 22.3377L47.5062 23.5975C47.8319 23.7315 48.2021 23.5699 48.3331 23.2364L48.3445 23.2072C48.4755 22.8737 48.3176 22.4947 47.9919 22.3606L44.9311 21.1008C44.6054 20.9668 44.2352 21.1284 44.1042 21.4619L44.0928 21.4912C43.9619 21.8246 44.1198 22.2036 44.4455 22.3377Z" fill="#001878"/>
</svg>
